<svg width="671" height="721" viewBox="0 0 671 721" fill="none" xmlns="http://www.w3.org/2000/svg">
<g clip-path="url(#clip0_3056_18668)">
<rect width="671" height="721" fill="url(#paint0_linear_3056_18668)"/>
<path fill-rule="evenodd" clip-rule="evenodd" d="M311.414 721C322.132 692.817 328 662.243 328 630.299C328 489.341 213.73 375.071 72.7717 375.071C47.4873 375.071 23.0615 378.748 -1.4661e-05 385.595L-1.46154e-05 386.639C23.0549 379.764 47.4821 376.071 72.7717 376.071C213.178 376.071 327 489.893 327 630.299C327 662.252 321.105 692.829 310.343 721L311.414 721ZM296.182 721C305.178 695.424 310.071 667.915 310.071 639.264C310.071 503.256 199.815 393 63.8071 393C41.7398 393 20.3505 395.903 -1.39725e-05 401.347L-1.39272e-05 402.382C20.3454 396.916 41.7357 394 63.8071 394C199.262 394 309.071 503.809 309.071 639.264C309.071 667.923 304.155 695.434 295.121 721L296.182 721ZM277.123 721C284.14 698.696 287.923 674.959 287.923 650.338C287.923 520.446 182.625 415.148 52.7331 415.148C34.6031 415.148 16.9523 417.2 -1.31098e-05 421.083L-1.30649e-05 422.109C16.9487 418.209 34.6003 416.148 52.7331 416.148C182.073 416.148 286.923 520.998 286.923 650.338C286.923 674.965 283.122 698.704 276.074 721L277.123 721ZM253.776 721C261.548 698.888 265.775 675.106 265.775 650.338C265.775 532.678 170.393 437.296 52.7331 437.296C34.5321 437.296 16.8642 439.578 -1.21136e-05 443.873L-1.20685e-05 444.905C16.8596 440.59 34.5285 438.296 52.7331 438.296C169.841 438.296 264.775 533.23 264.775 650.338C264.775 675.114 260.525 698.898 252.716 721L253.776 721ZM230.122 721C238.835 699.145 243.627 675.301 243.627 650.338C243.627 544.91 158.161 459.444 52.7332 459.444C34.4404 459.444 16.7486 462.017 -1.11105e-05 466.821L-1.10195e-05 468.903C16.7364 464.047 34.4308 461.444 52.7332 461.444C157.056 461.444 241.627 546.015 241.627 650.338C241.627 675.322 236.777 699.172 227.966 721L230.122 721ZM203.689 721C213.749 699.547 219.37 675.599 219.37 650.338C219.37 558.307 144.764 483.701 52.7331 483.701C34.3036 483.701 16.5728 486.693 -1.00004e-05 492.217L-9.90817e-06 494.327C16.5551 488.734 34.2899 485.701 52.7331 485.701C143.659 485.701 217.37 559.411 217.37 650.338C217.37 675.629 211.667 699.588 201.477 721L203.689 721ZM176.368 721C188.295 700.178 195.113 676.054 195.113 650.338C195.113 571.704 131.367 507.958 52.7332 507.958C34.1032 507.958 16.3088 511.536 -8.87153e-06 518.043L-8.77728e-06 520.199C16.2811 513.596 34.0824 509.958 52.7332 509.958C130.263 509.958 193.113 572.808 193.113 650.338C193.113 676.102 186.172 700.246 174.058 721L176.368 721ZM148.712 721C163.292 701.228 171.91 676.789 171.91 650.338C171.91 584.518 118.553 531.161 52.7331 531.161C33.7997 531.161 15.8976 535.576 -7.7617e-06 543.433L-7.66396e-06 545.669C15.8501 537.668 33.7653 533.161 52.7331 533.161C117.448 533.161 169.91 585.623 169.91 650.338C169.91 676.877 161.087 701.355 146.215 721L148.712 721ZM117.679 721C136.754 703.459 148.707 678.294 148.707 650.338C148.707 597.332 105.738 554.363 52.7331 554.363C33.2555 554.363 15.1331 560.166 -6.59449e-06 570.136L-6.4893e-06 572.542C15.0358 562.33 33.1876 556.363 52.7331 556.363C104.634 556.363 146.707 598.437 146.707 650.338C146.707 678.504 134.316 703.776 114.686 721L117.679 721Z" fill="#E0F6E8" fill-opacity="0.31"/>
<path fill-rule="evenodd" clip-rule="evenodd" d="M0 295.273C26.7227 305.436 55.7116 311 86 311C219.653 311 328 202.653 328 69C328 45.026 324.514 21.8663 318.021 0H316.977C323.498 21.8597 327 45.0209 327 69C327 202.101 219.101 310 86 310C55.7024 310 26.7106 304.409 0 294.203V295.273ZM0 280.831C24.2504 289.361 50.3334 294 77.5 294C206.458 294 311 189.458 311 60.5C311 39.5765 308.248 19.2957 303.086 0H302.05C307.235 19.2906 310 39.5724 310 60.5C310 188.906 205.906 293 77.5 293C50.3258 293 24.2404 288.338 0 279.77V280.831ZM0 262.76C21.1481 269.413 43.6551 273 67 273C190.159 273 290 173.159 290 50C290 32.8097 288.055 16.0736 284.373 0H283.347C287.046 16.0701 289 32.8068 289 50C289 172.607 189.607 272 67 272C43.6492 272 21.1405 268.395 0 261.711V262.76ZM0 240.623C20.9662 247.992 43.5151 252 67 252C178.562 252 269 161.562 269 50C269 32.7423 266.836 15.9901 262.764 0H261.732C265.824 15.9856 268 32.7387 268 50C268 161.009 178.009 251 67 251C43.5074 251 20.9562 246.97 0 239.563V240.623ZM0 218.195C20.7225 226.457 43.3307 231 67 231C166.964 231 248 149.964 248 50C248 32.6554 245.56 15.8806 241.005 0H238.923C243.53 15.8683 246 32.6458 246 50C246 148.859 165.859 229 67 229C43.3101 229 20.695 224.398 0 216.039V218.195ZM0 193.132C20.341 202.67 43.0481 208 67 208C154.261 208 225 137.261 225 50C225 32.5256 222.163 15.7138 216.925 0H214.815C220.122 15.6961 223 32.512 223 50C223 136.156 153.156 206 67 206C43.0179 206 20.2997 200.588 0 190.92V193.132ZM0 167.227C19.7433 178.536 42.6167 185 67 185C141.558 185 202 124.558 202 50C202 32.3356 198.607 15.4636 192.438 0H190.282C196.548 15.4358 200 32.3148 200 50C200 123.454 140.454 183 67 183C42.5682 183 19.6751 176.412 0 164.916V167.227ZM0 141.004C18.747 154.829 41.9193 163 67 163C129.408 163 180 112.408 180 50C180 32.0479 175.814 15.0736 168.364 0H166.128C173.722 15.0261 178 32.0135 178 50C178 111.304 128.304 161 67 161C41.8316 161 18.6197 152.623 0 138.506V141.004ZM0 111.58C16.6317 129.666 40.4923 141 67 141C117.258 141 158 100.258 158 50C158 31.5319 152.499 14.3488 143.045 0H140.638C150.333 14.2513 156 31.4639 156 50C156 99.1533 116.153 139 67 139C40.2819 139 16.3137 127.227 0 108.585V111.58Z" fill="#E0F6E8" fill-opacity="0.35"/>
<line x1="264.354" y1="387.573" x2="505.995" y2="183.237" stroke="url(#paint1_linear_3056_18668)" stroke-opacity="0.55" stroke-width="2"/>
<line x1="-13.6457" y1="521.573" x2="227.995" y2="317.237" stroke="url(#paint2_linear_3056_18668)" stroke-opacity="0.55" stroke-width="2"/>
<line x1="327.786" y1="575.746" x2="558.485" y2="359.133" stroke="url(#paint3_linear_3056_18668)" stroke-opacity="0.55" stroke-width="2"/>
<line x1="363.39" y1="164.208" x2="463.39" y2="87.2077" stroke="url(#paint4_linear_3056_18668)" stroke-opacity="0.55" stroke-width="2"/>
<line x1="163.39" y1="560.208" x2="263.39" y2="483.208" stroke="url(#paint5_linear_3056_18668)" stroke-opacity="0.55" stroke-width="2"/>
<line x1="463.39" y1="677.208" x2="563.39" y2="600.208" stroke="url(#paint6_linear_3056_18668)" stroke-opacity="0.55" stroke-width="2"/>
<g filter="url(#filter0_f_3056_18668)">
<circle cx="507.5" cy="97.5" r="58.5" fill="url(#paint7_linear_3056_18668)"/>
</g>
<path fill-rule="evenodd" clip-rule="evenodd" d="M766 128H666V126H766V128ZM743 145H643V143H743V145ZM620 162H720V160H620V162ZM697 179H597V177H697V179ZM574 196H674V194H574V196ZM651 213H551V211H651V213ZM528 230H628V228H528V230ZM605 247H505V245H605V247ZM482 264H582V262H482V264ZM559 281H459V279H559V281ZM436 298H536V296H436V298ZM513 315H413V313H513V315ZM390 332H490V330H390V332ZM467 349H367V347H467V349ZM344 366H444V364H344V366ZM421 383H321V381H421V383ZM298 400H398V398H298V400ZM375 417H275V415H375V417ZM252 434H352V432H252V434ZM329 451H229V449H329V451ZM206 468H306V466H206V468Z" fill="url(#paint8_linear_3056_18668)"/>
<rect x="749.831" y="271" width="271" height="708.646" transform="rotate(45.1996 749.831 271)" fill="#008060" fill-opacity="0.2"/>
<circle cx="544.5" cy="517.5" r="58.5" fill="url(#paint9_linear_3056_18668)"/>
</g>
<defs>
<filter id="filter0_f_3056_18668" x="445" y="35" width="125" height="125" filterUnits="userSpaceOnUse" color-interpolation-filters="sRGB">
<feFlood flood-opacity="0" result="BackgroundImageFix"/>
<feBlend mode="normal" in="SourceGraphic" in2="BackgroundImageFix" result="shape"/>
<feGaussianBlur stdDeviation="2" result="effect1_foregroundBlur_3056_18668"/>
</filter>
<linearGradient id="paint0_linear_3056_18668" x1="671" y1="7.35548e-05" x2="8.00002" y2="714.5" gradientUnits="userSpaceOnUse">
<stop offset="0.310042" stop-color="#008060"/>
<stop offset="1" stop-color="#38A680"/>
</linearGradient>
<linearGradient id="paint1_linear_3056_18668" x1="506.639" y1="183.998" x2="239.103" y2="409.637" gradientUnits="userSpaceOnUse">
<stop stop-color="#E0F6E8"/>
<stop offset="1" stop-color="#E0F6E8" stop-opacity="0"/>
</linearGradient>
<linearGradient id="paint2_linear_3056_18668" x1="228.639" y1="317.998" x2="-38.8967" y2="543.637" gradientUnits="userSpaceOnUse">
<stop stop-color="#E0F6E8"/>
<stop offset="1" stop-color="#E0F6E8" stop-opacity="0"/>
</linearGradient>
<linearGradient id="paint3_linear_3056_18668" x1="559.168" y1="359.86" x2="303.715" y2="599.091" gradientUnits="userSpaceOnUse">
<stop stop-color="#E0F6E8"/>
<stop offset="1" stop-color="#E0F6E8" stop-opacity="0"/>
</linearGradient>
<linearGradient id="paint4_linear_3056_18668" x1="463.999" y1="87.9982" x2="353.359" y2="173.099" gradientUnits="userSpaceOnUse">
<stop stop-color="#E0F6E8"/>
<stop offset="1" stop-color="#E0F6E8" stop-opacity="0"/>
</linearGradient>
<linearGradient id="paint5_linear_3056_18668" x1="263.999" y1="483.998" x2="153.359" y2="569.099" gradientUnits="userSpaceOnUse">
<stop stop-color="#E0F6E8"/>
<stop offset="1" stop-color="#E0F6E8" stop-opacity="0"/>
</linearGradient>
<linearGradient id="paint6_linear_3056_18668" x1="563.999" y1="600.998" x2="453.359" y2="686.099" gradientUnits="userSpaceOnUse">
<stop stop-color="#E0F6E8"/>
<stop offset="1" stop-color="#E0F6E8" stop-opacity="0"/>
</linearGradient>
<linearGradient id="paint7_linear_3056_18668" x1="552" y1="51.5" x2="395.5" y2="221.5" gradientUnits="userSpaceOnUse">
<stop offset="0.111291" stop-color="#008060"/>
<stop offset="1" stop-color="white" stop-opacity="0"/>
</linearGradient>
<linearGradient id="paint8_linear_3056_18668" x1="707.5" y1="126" x2="228.5" y2="488.5" gradientUnits="userSpaceOnUse">
<stop stop-color="#E0F6E8"/>
<stop offset="1" stop-color="#E0F6E8" stop-opacity="0"/>
</linearGradient>
<linearGradient id="paint9_linear_3056_18668" x1="589" y1="471.5" x2="432.5" y2="641.5" gradientUnits="userSpaceOnUse">
<stop offset="0.111291" stop-color="#158C6C"/>
<stop offset="0.786262" stop-color="white" stop-opacity="0"/>
</linearGradient>
<clipPath id="clip0_3056_18668">
<rect width="671" height="721" fill="white"/>
</clipPath>
</defs>
</svg>
