<svg width="200" height="200" viewBox="0 0 200 200" fill="none" xmlns="http://www.w3.org/2000/svg">
<g clip-path="url(#clip0_3161_18843)">
<path d="M100 0.441406C44.8583 0.441406 0 45.2997 0 100.441C0 151.083 37.8417 193.05 86.7333 199.558V196.525C39.5083 190.033 3 149.425 3 100.441C3 46.9581 46.5167 3.44141 100 3.44141C153.483 3.44141 197 46.9581 197 100.441C197 149.425 160.5 190.033 113.267 196.525V199.558C162.158 193.05 200 151.083 200 100.441C200 45.2997 155.142 0.441406 100 0.441406ZM100 14.5747C52.8917 14.5747 14.575 52.8914 14.575 99.9914C14.575 142.591 45.9083 178.008 86.7417 184.4V181.35C47.575 174.991 17.575 140.933 17.575 99.9997C17.575 54.5497 54.55 17.5831 100 17.5831C145.45 17.5831 182.425 54.5497 182.425 99.9997C182.425 140.933 152.425 174.991 113.258 181.35V184.4C154.092 178.008 185.425 142.591 185.425 99.9997C185.425 52.8914 147.108 14.5831 100 14.5831V14.5747ZM100 29.0414C60.875 29.0414 29.0417 60.8747 29.0417 99.9997C29.0417 134.591 53.925 163.483 86.7333 169.708V166.65C55.5917 160.466 32.0417 132.933 32.0417 99.9997C32.0417 62.5331 62.5333 32.0414 100 32.0414C137.467 32.0414 167.95 62.5331 167.95 99.9997C167.95 132.933 144.408 160.466 113.267 166.65V169.708C146.075 163.483 170.958 134.591 170.958 99.9997C170.958 60.8747 139.125 29.0414 100 29.0414ZM100 43.4164C84.9986 43.434 70.6166 49.4012 60.009 60.0088C49.4014 70.6164 43.4343 84.9983 43.4167 99.9997C43.4167 126.633 61.9167 149.025 86.7333 155.016V151.916C63.5833 146 46.4167 124.966 46.4167 99.9997C46.4321 85.7933 52.0824 72.1731 62.1279 62.1277C72.1734 52.0822 85.7936 46.4318 100 46.4164C114.206 46.4318 127.827 52.0822 137.872 62.1277C147.918 72.1731 153.568 85.7933 153.583 99.9997C153.583 124.966 136.417 146 113.267 151.916V155.016C138.092 149.025 156.583 126.633 156.583 99.9997C156.566 84.9983 150.599 70.6164 139.991 60.0088C129.383 49.4012 115.001 43.434 100 43.4164ZM100 57.9914C88.8628 58.0046 78.1855 62.4347 70.3102 70.31C62.435 78.1852 58.0049 88.8625 57.9917 99.9997C58.0053 108.817 60.7879 117.406 65.9464 124.557C71.105 131.707 78.3791 137.056 86.7417 139.85V136.683C79.203 133.95 72.6876 128.964 68.0796 122.402C63.4716 115.84 60.9941 108.018 60.9833 99.9997C60.9833 78.4997 78.4833 60.9997 99.9917 60.9997C121.5 60.9997 138.992 78.4997 138.992 99.9997C138.983 108.015 136.509 115.834 131.906 122.397C127.302 128.959 120.792 133.946 113.258 136.683V139.85C121.622 137.058 128.898 131.709 134.059 124.559C139.219 117.408 142.002 108.818 142.017 99.9997C142.001 88.8625 137.569 78.1861 129.692 70.3124C121.815 62.4388 111.137 58.0024 100 57.9914ZM100 72.4664C92.7004 72.4752 85.7023 75.3789 80.5407 80.5405C75.3791 85.7021 72.4755 92.7001 72.4667 99.9997C72.4667 110.375 78.2333 119.416 86.7333 124.116V120.616C82.2773 117.75 78.8691 113.518 77.019 108.554C75.1688 103.589 74.9761 98.159 76.4697 93.0757C77.9633 87.9924 81.0628 83.5295 85.3045 80.3548C89.5462 77.1802 94.7018 75.4645 100 75.4645C105.298 75.4645 110.454 77.1802 114.696 80.3548C118.937 83.5295 122.037 87.9924 123.53 93.0757C125.024 98.159 124.831 103.589 122.981 108.554C121.131 113.518 117.723 117.75 113.267 120.616V124.116C117.584 121.74 121.186 118.249 123.695 114.007C126.204 109.765 127.53 104.928 127.533 99.9997C127.525 92.7001 124.621 85.7021 119.459 80.5405C114.298 75.3789 107.3 72.4752 100 72.4664ZM100 86.7331C96.4815 86.7331 93.107 88.1308 90.619 90.6188C88.1311 93.1068 86.7333 96.4812 86.7333 99.9997C86.7333 103.518 88.1311 106.893 90.619 109.381C93.107 111.869 96.4815 113.266 100 113.266C103.519 113.266 106.893 111.869 109.381 109.381C111.869 106.893 113.267 103.518 113.267 99.9997C113.267 96.4812 111.869 93.1068 109.381 90.6188C106.893 88.1308 103.519 86.7331 100 86.7331Z" fill="#38A680"/>
</g>
<defs>
<clipPath id="clip0_3161_18843">
<rect width="200" height="200" fill="white"/>
</clipPath>
</defs>
</svg>
