<svg width="200" height="200" viewBox="0 0 200 200" fill="none" xmlns="http://www.w3.org/2000/svg">
<path d="M165.833 25.0003C160.833 16.667 150.833 14.167 143.333 19.167L57.5 68.3337C55 67.5003 52.5 66.667 50 66.667C35.8334 66.667 25 77.5003 25 91.667V166.667C20 166.667 16.6667 170 16.6667 175V183.334H83.3334V175C83.3334 170 80 166.667 75 166.667V96.667L159.167 48.3337C167.5 43.3337 170 33.3337 165.833 25.0003ZM50 104.167C43.3334 104.167 37.5 98.3337 37.5 91.667C37.5 85.0003 43.3334 79.167 50 79.167C56.6667 79.167 62.5 85.0003 62.5 91.667C62.5 98.3337 56.6667 104.167 50 104.167ZM86.6667 80.0003L67.5 71.667L78.3333 65.0003L97.5 73.3337L86.6667 80.0003ZM115.833 63.3337L96.6667 55.0003L107.5 48.3337L126.667 56.667L115.833 63.3337ZM144.167 46.667L125 38.3337L135.833 31.667L155 40.0003L144.167 46.667Z" fill="#38A680"/>
</svg>
